<svg viewBox="0 0 192 192" xmlns="http://www.w3.org/2000/svg" fill="none"><g id="SVGRepo_bgCarrier" strokeWidth="0"></g><g id="SVGRepo_tracerCarrier" strokeLinecap="round" strokeLinejoin="round"></g><g id="SVGRepo_iconCarrier"><path stroke="#ffffff" strokeLinejoin="round" strokeWidth="12" d="M22 57.265V142c0 5.523 4.477 10 10 10h24V95.056l40 30.278 40-30.278V152h24c5.523 0 10-4.477 10-10V57.265c0-13.233-15.15-20.746-25.684-12.736L96 81.265 47.684 44.53C37.15 36.519 22 44.032 22 57.265Z"></path></g></svg>


<svg viewBox="0 0 24 24" fill="none" xmlns="http://www.w3.org/2000/svg"><g id="SVGRepo_bgCarrier" strokeWidth="0"></g><g id="SVGRepo_tracerCarrier" strokeLinecap="round" strokeLinejoin="round"></g><g id="SVGRepo_iconCarrier"> <path fill-rule="evenodd" clip-rule="evenodd" d="M12 18C15.3137 18 18 15.3137 18 12C18 8.68629 15.3137 6 12 6C8.68629 6 6 8.68629 6 12C6 15.3137 8.68629 18 12 18ZM12 16C14.2091 16 16 14.2091 16 12C16 9.79086 14.2091 8 12 8C9.79086 8 8 9.79086 8 12C8 14.2091 9.79086 16 12 16Z" fill="#ffffff"></path> <path d="M18 5C17.4477 5 17 5.44772 17 6C17 6.55228 17.4477 7 18 7C18.5523 7 19 6.55228 19 6C19 5.44772 18.5523 5 18 5Z" fill="#fafafa"></path> <path fill-rule="evenodd" clip-rule="evenodd" d="12" d="M22 57.265V142c0 5.523 4.477 10 10 10h24V95.056l40 30.278 40-30.278V152h24c5.523 0 10-4.477 10-10V57.265c0-13.233-15.15-20.746-25.684-12.736L96 81.265 47.684 44.53C37.15 36.519 22 44.032 22 57.265Z" fill="#ffffff"></path> </g></svg>